<?xml version="1.0" encoding="UTF-8"?>
<svg id="Calque_2" data-name="Calque 2" xmlns="http://www.w3.org/2000/svg" viewBox="0 0 14.06 18">
  <defs>
    <style>
      .cls-1 {
        fill: #ecebf3;
        stroke-width: 0px;
      }
    </style>
  </defs>
  <g id="Calque_1-2" data-name="Calque 1">
    <path class="cls-1" d="m5.96,17.84c.25.11.52.16.79.16.65,0,1.26-.33,1.62-.88l5.36-7.98c.61-.9.36-2.13-.54-2.73-.32-.22-.71-.33-1.1-.33h-3.64l.81-3.68c.24-1.06-.43-2.12-1.5-2.35-.79-.18-1.61.15-2.07.83L.33,8.86c-.61.9-.36,2.13.54,2.73.32.22.71.33,1.1.33h3.64l-.81,3.68c-.21.93.27,1.87,1.15,2.24Zm-3.98-7.41c-.26,0-.47-.21-.47-.47,0-.09.03-.19.08-.26L6.94,1.71c.08-.13.22-.21.37-.21.07,0,.14.02.21.04.22.08.34.31.27.53l-1.01,4.58c-.09.4.17.8.57.89.05.01.11.02.16.02h4.58c.26,0,.47.21.47.47,0,.09-.03.19-.08.26l-5.36,7.98c-.14.22-.44.27-.65.13-.16-.11-.24-.3-.2-.49l1.01-4.58c.09-.4-.17-.81-.57-.89-.05-.01-.11-.02-.16-.02H1.97Z"/>
  </g>
</svg>