<?xml version="1.0" encoding="UTF-8"?>
<svg id="Calque_2" data-name="Calque 2" xmlns="http://www.w3.org/2000/svg" viewBox="0 0 12.52 15.31">
  <defs>
    <style>
      .cls-1 {
        fill: #ecebf3;
        stroke-width: 0px;
      }
    </style>
  </defs>
  <g id="Calque_1-2" data-name="Calque 1">
    <g>
      <path class="cls-1" d="m4.38,15.31h3.76c2.42,0,4.38-2,4.38-4.47v-6.38c0-2.47-1.96-4.46-4.38-4.47h-3.76C1.96,0,0,2,0,4.47c0,.35.28.64.63.64s.63-.29.63-.64c0-1.76,1.4-3.19,3.13-3.19h3.76c1.73,0,3.13,1.43,3.13,3.19v6.38c0,1.76-1.4,3.19-3.13,3.19h-3.76c-1.73,0-3.13-1.43-3.13-3.19,0-.35-.28-.64-.63-.64s-.63.29-.63.64c0,2.47,1.96,4.46,4.38,4.47Z"/>
      <path class="cls-1" d="m0,7.66c0,.35.28.64.63.64h4.44l-.81.83c-.25.24-.26.65-.02.9s.64.26.89.02c0,0,.01-.01.02-.02l1.88-1.91c.24-.25.24-.65,0-.9l-1.88-1.91c-.25-.24-.65-.24-.89.02-.23.25-.23.64,0,.89l.81.83H.63c-.35,0-.63.29-.63.64Z"/>
    </g>
  </g>
</svg>