<?xml version="1.0" encoding="UTF-8"?>
<svg id="Calque_2" data-name="Calque 2" xmlns="http://www.w3.org/2000/svg" viewBox="0 0 13.3 16.14">
  <defs>
    <style>
      .cls-1 {
        fill: #ecebf3;
        stroke-width: 0px;
      }
    </style>
  </defs>
  <g id="Calque_1-2" data-name="Calque 1">
    <path class="cls-1" d="m2.31,15.48c1.4.46,2.87.69,4.34.66,3.07,0,6.65-.82,6.65-3.15,0-2.73-1.67-5.18-4.21-6.18,1.64-1.35,1.88-3.77.53-5.41C8.27-.24,5.85-.47,4.21.87c-1.64,1.35-1.88,3.77-.53,5.41.16.19.34.37.53.53C1.67,7.81,0,10.26,0,12.99c0,.75.4,1.79,2.31,2.49Zm1.84-11.63c0-1.38,1.12-2.5,2.5-2.5s2.5,1.12,2.5,2.5c0,1.38-1.12,2.5-2.5,2.5-1.38,0-2.5-1.12-2.5-2.5Zm2.5,3.84c2.93,0,5.3,2.38,5.3,5.3,0,.99-2.38,1.8-5.3,1.8s-5.3-.81-5.3-1.8c0-2.93,2.38-5.3,5.3-5.3Z"/>
  </g>
</svg>