<?xml version="1.0" encoding="UTF-8"?>
<svg id="Calque_2" data-name="Calque 2" xmlns="http://www.w3.org/2000/svg" viewBox="0 0 12 15.16">
  <defs>
    <style>
      .cls-1 {
        fill: #ecebf3;
        stroke-width: 0px;
      }
    </style>
  </defs>
  <g id="Calque_1-2" data-name="Calque 1">
    <g>
      <path class="cls-1" d="m6,1.26c1.57,0,2.84,1.27,2.84,2.84,0,.35.28.63.63.63s.63-.28.63-.63c0-2.27-1.84-4.11-4.11-4.11S1.9,1.84,1.9,4.11v1.26c-1.05,0-1.89.85-1.9,1.9v6c0,1.05.85,1.89,1.9,1.9h8.21c1.05,0,1.89-.85,1.9-1.9v-6c0-1.05-.85-1.89-1.9-1.9H3.16v-1.26c0-1.57,1.27-2.84,2.84-2.84Zm4.74,6v6c0,.35-.28.63-.63.63H1.9c-.35,0-.63-.28-.63-.63v-6c0-.35.28-.63.63-.63h8.21c.35,0,.63.28.63.63Z"/>
      <path class="cls-1" d="m5.37,10.94v1.37c0,.35.28.63.63.63s.63-.28.63-.63v-1.37c.99-.35,1.5-1.43,1.15-2.42-.35-.99-1.43-1.5-2.42-1.15s-1.5,1.43-1.15,2.42c.19.54.62.96,1.15,1.15Zm.63-2.42c.35,0,.63.28.63.63s-.28.63-.63.63-.63-.28-.63-.63.28-.63.63-.63Z"/>
    </g>
  </g>
</svg>